# xmcd CD database file
#
# Track frame offsets:
#	150
#	11991
#	26157
#	39286
#	54259
#	66532
#	78236
#	91951
#	103336
#	118042
#	129939
#	141015
#	155038
#	169788
#	183495
#	196251
#	208894
#	227663
#	241327
#	253207
#	267242
#	279691
#
# Disc length: 3907 seconds
#
# Revision: 0
# Processed by: cddbd v1.5.2PL0 Copyright (c) Steve Scherf et al.
# Submitted via: CDex 1.51
#
DISCID=430f4116
DTITLE=Django Reinghardt - I'll See You In My Dreams
DYEAR=1900
DGENRE=Jazz
TTITLE0=Tears
TTITLE1=Solitude
TTITLE2=Runnin' Wild
TTITLE3=Liebestraum No. 3
TTITLE4=St Louis Blues
TTITLE5=I've Found a New Baby
TTITLE6=Sugar
TTITLE7=I'll See You In My Dreams
TTITLE8=Out of Nowhere
TTITLE9=Baby
TTITLE10=Naguine
TTITLE11=Swing 41
TTITLE12=Nuages
TTITLE13=Swing de Paris
TTITLE14=Oiseaux des Iles
TTITLE15=All of Me
TTITLE16=Festival Swing
TTITLE17=Coquette
TTITLE18=Django's Tiger
TTITLE19=Embraceable You
TTITLE20=Echoes of France
TTITLE21=Belleville
EXTD=
EXTT0=
EXTT1=
EXTT2=
EXTT3=
EXTT4=
EXTT5=
EXTT6=
EXTT7=
EXTT8=
EXTT9=
EXTT10=
EXTT11=
EXTT12=
EXTT13=
EXTT14=
EXTT15=
EXTT16=
EXTT17=
EXTT18=
EXTT19=
EXTT20=
EXTT21=
PLAYORDER=
